<svg width="6" height="12" viewBox="0 0 6 12" fill="none" xmlns="http://www.w3.org/2000/svg">
<path fill-rule="evenodd" clip-rule="evenodd" d="M1.32172 6.04699V11.8496C1.32172 11.9327 1.3959 12 1.48525 12H3.805C3.89267 12 3.96684 11.9327 3.96684 11.8496V5.95145H5.64765C5.73195 5.95145 5.80275 5.89193 5.8095 5.81363L5.97303 4.03759C5.97977 3.94988 5.90559 3.87314 5.8095 3.87314H3.96684V2.61394C3.96684 2.31793 4.22478 2.07831 4.54173 2.07831H5.83816C5.92751 2.07831 6 2.01096 6 1.92796V0.150352C6 0.0673453 5.92751 0 5.83816 0H3.6499C2.36359 0 1.32172 0.966327 1.32172 2.16132V3.87314H0.163529C0.0724923 3.87314 0 3.94049 0 4.02349V5.8011C0 5.8841 0.0724923 5.95145 0.163529 5.95145H1.32172V6.04699Z" fill="#1B3355"/>
</svg>
